<?xml version="1.0" standalone="no"?><!DOCTYPE svg PUBLIC "-//W3C//DTD SVG 1.1//EN" "http://www.w3.org/Graphics/SVG/1.1/DTD/svg11.dtd"><svg class="icon" width="200px" height="200.00px" viewBox="0 0 1024 1024" version="1.1" xmlns="http://www.w3.org/2000/svg"><path d="M512 2.56C231.424 2.56 3.584 229.888 3.584 510.976S231.424 1018.88 512 1018.88s508.416-227.328 508.416-508.416S793.088 2.56 512 2.56z m0 941.568c-239.616 0-433.664-194.048-433.664-433.664S272.384 76.8 512 76.8s433.664 194.048 433.664 433.664-194.048 433.664-433.664 433.664z" fill="#F4DCCB" /><path d="M396.288 459.776c-13.312 0-24.064-10.752-24.064-24.064v-45.056c0-77.312 62.976-140.8 140.8-140.8 77.312 0 140.8 62.976 140.8 140.8 0 13.312-10.752 24.064-24.064 24.064s-24.064-10.752-24.064-24.064c0-50.688-41.472-92.16-92.16-92.16s-92.16 41.472-92.16 92.16V435.2c-1.024 13.824-11.776 24.576-25.088 24.576z" fill="#FF9D4D" /><path d="M643.072 771.584H380.928c-32.768 0-59.904-26.624-59.904-59.904V496.128c0-32.768 26.624-59.904 59.904-59.904h262.656c32.768 0 59.904 26.624 59.904 59.904v215.04c-0.512 33.792-26.624 60.416-60.416 60.416z m-262.144-286.72c-6.144 0-11.264 5.12-11.264 11.264V711.68c0 6.144 5.12 11.264 11.264 11.264h262.656c6.656 0 11.264-5.12 11.264-12.288v-215.04c0-6.144-5.12-11.264-11.264-11.264H380.928z" fill="#FF9D4D" /><path d="M512.512 522.752c-24.064 0-44.544 19.968-44.544 44.544v12.288c0 18.432 11.776 34.816 28.16 41.472v51.712c0 8.704 7.168 16.384 16.384 16.384 8.704 0 16.384-7.168 16.384-16.384v-51.712c16.384-6.656 28.16-22.528 28.16-41.472v-12.288c0-24.064-20.48-44.544-44.544-44.544z" fill="#FF9D4D" /></svg>